# File created by Blade
# Date/Time:  Tue Jan 27 19:00:46 2015
#---------------------------------------------------------
:version 1.10
:name HOM
:units
  mass 1.0
  length 1.000000
  angle deg
:documentation
     Acclaim Skeleton File
:root
   axis xyz
   order TX TY TZ RX RY RZ
   position 0.000000 0.000000 0.000000
   orientation 0 0 0
:bonedata
   begin
      id 1
      name Spine_dum
      direction 0.000000 1.000000 0.000000
      length 5.195262
      axis 0.0 0.0 0.0 xyz
   end
   begin
      id 2
      name LeftUpLeg_dum
      direction 1.000000 0.000000 0.000000
      length 3.351363
      axis 0.0 0.0 0.0 xyz
   end
   begin
      id 3
      name RightUpLeg_dum
      direction -1.000000 0.000000 0.000000
      length 3.351363
      axis 0.0 0.0 0.0 xyz
   end
   begin
      id 4
      name Spine
      direction 0.000000 1.000000 0.000000
      length 0.000000
      axis 0.0 0.0 0.0 xyz
      dof rx ry rz
   end
   begin
      id 5
      name Spine_dum1
      direction 0.000000 1.000000 0.000000
      length 15.653875
      axis 0.0 0.0 0.0 xyz
   end
   begin
      id 6
      name Spine_dum2
      direction 0.000000 1.000000 0.000000
      length 10.329768
      axis 0.0 0.0 0.0 xyz
   end
   begin
      id 7
      name Spine_dum3
      direction 0.000000 1.000000 0.000000
      length 10.329768
      axis 0.0 0.0 0.0 xyz
   end
   begin
      id 8
      name Head
      direction 0.000000 1.000000 0.000000
      length 4.527550
      axis 0.0 0.0 0.0 xyz
      dof rx ry rz
   end
   begin
      id 9
      name LeftShoulder
      direction 1.000000 0.000000 0.000000
      length 6.996006
      axis 0.0 0.0 -90.0 xyz
      dof rx ry rz
   end
   begin
      id 10
      name LeftArm
      direction 1.000000 0.000000 0.000000
      length 10.209302
      axis 0.0 0.0 -90.0 xyz
      dof rx ry rz
   end
   begin
      id 11
      name LeftForeArm
      direction 1.000000 0.000000 0.000000
      length 8.563163
      axis 0.0 0.0 -90.0 xyz
      dof ry rz rx
   end
   begin
      id 12
      name LeftHand
      direction 0.000000 0.000000 0.000000
      length 0.000000
      axis 0.0 0.0 -90.0 xyz
      dof rx ry rz
   end
   begin
      id 13
      name LeftHand_dum1
      direction 0.000000 0.000000 0.000000
      length 0.000000
      axis 0.0 0.0 -90.0 xyz
   end
   begin
      id 14
      name LeftHand_dum2
      direction 1.000000 0.000000 0.000000
      length 3.937000
      axis 0.0 0.0 -90.0 xyz
   end
   begin
      id 15
      name LeftHandThumb1
      direction 0.000000 0.000000 1.000000
      length 3.937000
      axis 0.0 0.0 -90.0 xyz
      dof rx rz ry
   end
   begin
      id 16
      name RightShoulder
      direction -1.000000 0.000000 0.000000
      length 6.996006
      axis 0.0 0.0 90.0 xyz
      dof rx ry rz
   end
   begin
      id 17
      name RightArm
      direction -1.000000 0.000000 0.000000
      length 10.209302
      axis 0.0 0.0 90.0 xyz
      dof rx ry rz
   end
   begin
      id 18
      name RightForeArm
      direction -1.000000 0.000000 0.000000
      length 8.563163
      axis 0.0 0.0 90.0 xyz
      dof ry rz rx
   end
   begin
      id 19
      name RightHand
      direction 0.000000 0.000000 0.000000
      length 0.000000
      axis 0.0 0.0 90.0 xyz
      dof rx ry rz
   end
   begin
      id 20
      name RightHand_dum1
      direction 0.000000 0.000000 0.000000
      length 0.000000
      axis 0.0 0.0 90.0 xyz
   end
   begin
      id 21
      name RightHand_dum2
      direction -1.000000 0.000000 0.000000
      length 3.937000
      axis 0.0 0.0 90.0 xyz
   end
   begin
      id 22
      name RightHandThumb1
      direction 0.000000 0.000000 1.000000
      length 3.937000
      axis 0.0 0.0 90.0 xyz
      dof rx rz ry
   end
   begin
      id 23
      name LeftUpLeg
      direction 0.000000 -1.000000 0.000000
      length 16.346831
      axis 0.0 0.0 0.0 xyz
      dof rx ry rz
   end
   begin
      id 24
      name LeftLeg
      direction 0.000000 -1.000000 0.000000
      length 13.959795
      axis 0.0 0.0 0.0 xyz
      dof rx ry rz
   end
   begin
      id 25
      name LeftFoot
      direction 0.000000 -0.258819 0.965926
      length 5.165550
      axis 15.0 0.0 0.0 xyz
      dof rx ry rz
   end
   begin
      id 26
      name LeftToeBase
      direction 0.000000 0.000000 1.000000
      length 2.952750
      axis 0.0 0.0 0.0 xyz
      dof rx ry rz
   end
   begin
      id 27
      name RightUpLeg
      direction 0.000000 -1.000000 0.000000
      length 16.346831
      axis 0.0 0.0 0.0 xyz
      dof rx ry rz
   end
   begin
      id 28
      name RightLeg
      direction 0.000000 -1.000000 0.000000
      length 13.959795
      axis 0.0 0.0 0.0 xyz
      dof rx ry rz
   end
   begin
      id 29
      name RightFoot
      direction 0.000000 -0.258819 0.965926
      length 5.165550
      axis 15.0 0.0 0.0 xyz
      dof rx ry rz
   end
   begin
      id 30
      name RightToeBase
      direction 0.000000 0.000000 1.000000
      length 2.952750
      axis 0.0 0.0 0.0 xyz
      dof rx ry rz
   end
:hierarchy
   begin
      root Spine_dum LeftUpLeg_dum RightUpLeg_dum
      Spine_dum Spine
      LeftUpLeg_dum LeftUpLeg
      RightUpLeg_dum RightUpLeg
      Spine Spine_dum1 Spine_dum2 Spine_dum3
      Spine_dum1 Head
      Spine_dum2 LeftShoulder
      Spine_dum3 RightShoulder
      LeftShoulder LeftArm
      LeftArm LeftForeArm
      LeftForeArm LeftHand
      LeftHand LeftHand_dum1 LeftHand_dum2
      LeftHand_dum1 LeftHandThumb1
      RightShoulder RightArm
      RightArm RightForeArm
      RightForeArm RightHand
      RightHand RightHand_dum1 RightHand_dum2
      RightHand_dum1 RightHandThumb1
      LeftUpLeg LeftLeg
      LeftLeg LeftFoot
      LeftFoot LeftToeBase
      RightUpLeg RightLeg
      RightLeg RightFoot
      RightFoot RightToeBase
   end

# File created by Blade
# Date/Time:  Tue Jan 27 19:00:36 2015
# Frame Rate: 120.000 fps
#------------------------------------------------------
:FULLY-SPECIFIED
:DEGREES
1599
root -1.947257 31.904441 -5.140921 2.913212 10.885767 -6.459880
Spine 1.036377 -8.259291 0.273574
Head 20.012663 -6.942114 11.266330
LeftShoulder -14.978247 13.957217 16.279963
LeftArm 14.028360 -35.822594 -77.130289
LeftForeArm -4.983952 -0.000000 88.734767
LeftHand -9.698974 -0.000000 23.631988
LeftHandThumb1 -26.253704 0.000000 33.147579
RightShoulder -12.832754 -4.453307 -7.713717
RightArm 2.675249 -28.474830 86.135005
RightForeArm -24.137657 -0.000000 23.454034
RightHand -14.658905 -0.000000 9.721884
RightHandThumb1 -24.326973 -0.000000 -32.862282
LeftUpLeg -7.116479 -3.372376 -2.736365
LeftLeg 16.789574 -0.000000 -0.000000
LeftFoot -24.835455 22.063273 -14.768655
LeftToeBase 9.722617 -0.000000 -0.000000
RightUpLeg -45.674120 -9.131113 6.271795
RightLeg 75.678108 -0.000000 -0.000000
RightFoot -18.652495 -16.862265 19.382367
RightToeBase 4.679327 -0.000000 -0.000000
1600
root -1.937986 31.900247 -5.147198 2.934082 10.606991 -6.427054
Spine 1.017808 -8.164739 0.233159
Head 19.887907 -6.940138 11.308695
LeftShoulder -14.971499 13.984875 16.313820
LeftArm 13.856780 -36.016326 -77.128765
LeftForeArm -4.939959 -0.000000 88.772399
LeftHand -9.725406 -0.000000 23.682235
LeftHandThumb1 -26.253704 0.000000 33.147579
RightShoulder -12.861710 -4.428493 -7.702468
RightArm 2.755453 -28.459686 86.052405
RightForeArm -24.172403 -0.000000 23.559399
RightHand -14.673610 -0.000000 9.572168
RightHandThumb1 -24.326973 -0.000000 -32.862282
LeftUpLeg -7.115068 -3.263886 -2.804739
LeftLeg 16.779398 -0.000000 -0.000000
LeftFoot -24.881428 22.220289 -14.818656
LeftToeBase 9.745947 -0.000000 -0.000000
RightUpLeg -45.674271 -9.375992 6.360110
RightLeg 75.528414 -0.000000 -0.000000
RightFoot -18.574443 -16.851185 19.375973
RightToeBase 4.662331 -0.000000 -0.000000
1601
root -1.927580 31.896029 -5.151394 2.970295 10.328078 -6.397542
Spine 0.964572 -8.074347 0.216735
Head 19.787279 -6.869856 11.372208
LeftShoulder -14.962244 14.038115 16.300224
LeftArm 13.653078 -36.176830 -77.016523
LeftForeArm -4.965381 -0.000000 88.812310
LeftHand -9.754409 -0.000000 23.845126
LeftHandThumb1 -26.253704 0.000000 33.147579
RightShoulder -12.872499 -4.347537 -7.717044
RightArm 2.722251 -28.381152 86.019050
RightForeArm -24.242997 -0.000000 23.695935
RightHand -14.694633 -0.000000 9.549634
RightHandThumb1 -24.326973 -0.000000 -32.862282
LeftUpLeg -7.120803 -3.143360 -2.870355
LeftLeg 16.761465 -0.000000 -0.000000
LeftFoot -24.948891 22.352840 -14.883960
LeftToeBase 9.713475 -0.000000 -0.000000
RightUpLeg -45.678447 -9.644346 6.454856
RightLeg 75.348259 -0.000000 -0.000000
RightFoot -18.591130 -16.835709 19.491654
RightToeBase 4.821105 -0.000000 -0.000000
1602
root -1.919943 31.892594 -5.155171 3.011889 10.059731 -6.362935
Spine 0.907146 -8.033502 0.188882
Head 19.696784 -6.824368 11.407374
LeftShoulder -14.991395 14.035030 16.299249
LeftArm 13.437596 -36.394749 -76.940747
LeftForeArm -4.932703 -0.000000 88.826855
LeftHand -9.822608 -0.000000 23.895703
LeftHandThumb1 -26.253704 0.000000 33.147579
RightShoulder -12.877126 -4.326769 -7.704030
RightArm 2.771170 -28.287926 85.951989
RightForeArm -24.329354 -0.000000 23.829741
RightHand -14.687422 -0.000000 9.548792
RightHandThumb1 -24.326973 -0.000000 -32.862282
LeftUpLeg -7.128461 -2.988666 -2.934878
LeftLeg 16.732397 -0.000000 -0.000000
LeftFoot -24.967912 22.465024 -14.889568
LeftToeBase 9.629903 -0.000000 -0.000000
RightUpLeg -45.682690 -9.904642 6.553864
RightLeg 75.183283 -0.000000 -0.000000
RightFoot -18.514226 -16.953445 19.295918
RightToeBase 4.779995 -0.000000 -0.000000
1603
root -1.919027 31.888960 -5.162455 3.059622 9.785103 -6.351925
Spine 0.860176 -7.975457 0.166302
Head 19.556508 -6.842373 11.432002
LeftShoulder -15.009918 14.040900 16.347678
LeftArm 13.245957 -36.667041 -77.004370
LeftForeArm -4.821149 0.000000 88.860029
LeftHand -9.811782 -0.000000 23.794261
LeftHandThumb1 -26.253704 0.000000 33.147579
RightShoulder -12.905195 -4.293280 -7.679025
RightArm 2.841944 -28.233288 85.896144
RightForeArm -24.347867 -0.000000 23.917858
RightHand -14.733148 -0.000000 9.508648
RightHandThumb1 -24.326973 -0.000000 -32.862282
LeftUpLeg -7.192337 -2.650841 -2.959128
LeftLeg 16.778738 -0.000000 -0.000000
LeftFoot -25.025842 22.374421 -14.918557
LeftToeBase 9.682763 -0.000000 -0.000000
RightUpLeg -45.709476 -10.145523 6.662566
RightLeg 75.016639 -0.000000 -0.000000
RightFoot -18.515240 -16.873603 19.472865
RightToeBase 4.726463 -0.000000 -0.000000
1604
root -1.911170 31.886044 -5.166353 3.103766 9.509816 -6.328999
Spine 0.799689 -7.933247 0.158184
Head 19.450507 -6.809636 11.428613
LeftShoulder -15.042453 14.105176 16.335266
LeftArm 13.075902 -36.913563 -77.004931
LeftForeArm -4.788912 -0.000000 88.888174
LeftHand -9.805424 -0.000000 23.814995
LeftHandThumb1 -26.253704 0.000000 33.147579
RightShoulder -12.885684 -4.237233 -7.678082
RightArm 2.850495 -28.160301 85.859604
RightForeArm -24.321693 -0.000000 24.001734
RightHand -14.758051 -0.000000 9.426634
RightHandThumb1 -24.326973 -0.000000 -32.862282
LeftUpLeg -7.207652 -2.409281 -3.009472
LeftLeg 16.749965 -0.000000 -0.000000
LeftFoot -25.176826 22.326865 -15.109155
LeftToeBase 9.914504 -0.000000 -0.000000
RightUpLeg -45.712780 -10.376852 6.739409
RightLeg 74.846958 -0.000000 -0.000000
RightFoot -18.623238 -16.857003 19.664297
RightToeBase 4.881829 -0.000000 -0.000000
1605
root -1.901659 31.882709 -5.170733 3.158768 9.233014 -6.285114
Spine 0.732726 -7.877300 0.119546
Head 19.336957 -6.724838 11.444189
LeftShoulder -15.060678 14.157689 16.352886
LeftArm 12.877401 -37.143601 -76.994447
LeftForeArm -4.775534 -0.000000 88.925453
LeftHand -9.837565 -0.000000 23.876808
LeftHandThumb1 -26.253704 0.000000 33.147579
RightShoulder -12.899523 -4.189698 -7.660313
RightArm 2.879843 -28.082167 85.812161
RightForeArm -24.327305 -0.000000 24.064425
RightHand -14.766578 -0.000000 9.413599
RightHandThumb1 -24.326973 -0.000000 -32.862282
LeftUpLeg -7.223878 -2.212306 -3.086802
LeftLeg 16.728053 -0.000000 -0.000000
LeftFoot -25.215543 22.363091 -15.145503
LeftToeBase 9.904291 -0.000000 -0.000000
RightUpLeg -45.734986 -10.642991 6.793673
RightLeg 74.696571 -0.000000 -0.000000
RightFoot -18.683059 -16.864416 19.753457
RightToeBase 4.766151 -0.000000 -0.000000
